<?xml version="1.0" encoding="UTF-8"?>
<svg id="Calque_2" data-name="Calque 2" xmlns="http://www.w3.org/2000/svg" viewBox="0 0 118.71 118.71">
  <defs>
    <style>
      .cls-1, .cls-2 {
        fill: #ffc700;
      }

      .cls-3 {
        fill: #503500;
      }

      .cls-2 {
        stroke: #503500;
        stroke-miterlimit: 10;
        stroke-width: 3px;
      }
    </style>
  </defs>
  <g id="Calque_1-2" data-name="Calque 1">
    <g>
      <rect class="cls-1" y="0" width="118.71" height="118.71" rx="26.81" ry="26.81"/>
      <g>
        <path class="cls-2" d="m102.02,58.23c0,21.71-19.1,39.31-42.66,39.31s-42.66-17.6-42.66-39.31S36.4,25.62,59.96,25.62s42.05,10.9,42.05,32.61Z"/>
        <rect class="cls-2" x="20.48" y="23.17" width="77.74" height="15.13" rx="7.56" ry="7.56"/>
        <path class="cls-3" d="m36.36,65.61c0-9.24,1.63-16.09,4.85-20.48,1.86-1.72,4.62-2.58,8.38-2.58s6.48.86,8.34,2.58c.82,1.5.82,3.76,0,6.89s-.82,5.39,0,6.89c.14.09.5.14,1.04.14.5,0,.86-.05,1-.14.82-1.5.82-3.76,0-6.89s-.82-5.39,0-6.89c1.9-1.77,4.8-2.67,8.75-2.67s6.84.91,8.79,2.67c3.22,4.4,4.85,11.24,4.85,20.48s-1.63,16.13-4.85,20.53c-1.95,1.77-4.85,2.67-8.75,2.67s-6.84-.91-8.75-2.67c-.95-1.72-.95-4.4,0-7.98s.95-6.25,0-7.98c-.14-.09-.5-.14-1.04-.14-.59,0-.95.05-1.09.14-.95,1.72-.95,4.4,0,7.98s.95,6.25,0,7.98c-1.86,1.72-4.62,2.58-8.34,2.58s-6.48-.86-8.34-2.58c-3.22-4.4-4.85-11.24-4.85-20.53Z"/>
      </g>
    </g>
  </g>
</svg>